<svg width="25" height="24" viewBox="0 0 25 24" fill="none" xmlns="http://www.w3.org/2000/svg">
<path d="M16.5195 9.20703C15.8086 9.01562 14.9883 8.66016 14.2773 8.22266C13.5664 7.8125 12.8281 7.29297 12.3086 6.74609C11.4883 5.87109 10.0938 5.84375 9.21875 6.69141C8.83594 7.07422 8.61719 7.56641 8.5625 8.05859C8.42578 9.50781 8.01562 11.4492 7.22266 12.8438C6.375 14.3203 6.86719 16.207 8.34375 17.0273C9.79297 17.875 11.6797 17.3828 12.5273 15.9062C12.9102 15.2227 13.5664 14.6758 14.1953 14.293C14.8242 13.8828 15.5625 13.582 16.3008 13.5C16.6289 13.4453 16.9844 13.3086 17.2852 13.0898C18.2695 12.3516 18.4609 10.9844 17.75 10.0273C17.4219 9.58984 17.0117 9.31641 16.5195 9.20703ZM13.2656 5.84375C14.0859 6.69141 15.6992 7.64844 16.8477 7.92188C17.6133 8.11328 18.2969 8.57812 18.7891 9.23438C19.9375 10.793 19.6367 12.9805 18.0781 14.1289C17.5859 14.5117 17.0391 14.7031 16.4648 14.7852C15.4531 14.9492 14.168 15.6875 13.6484 16.5898C12.4453 18.668 9.76562 19.3789 7.66016 18.1758C5.58203 16.9727 4.87109 14.293 6.07422 12.1875C6.75781 11.0391 7.14062 9.31641 7.25 7.94922C7.33203 7.12891 7.6875 6.33594 8.31641 5.73438C9.71094 4.39453 11.9258 4.44922 13.2656 5.84375ZM8.5625 11.3125C8.5625 10.2188 9.13672 9.23438 10.0938 8.6875C11.0234 8.11328 12.1992 8.11328 13.1562 8.6875C14.0859 9.23438 14.6875 10.2188 14.6875 11.3125C14.6875 12.4336 14.0859 13.418 13.1562 13.9648C12.1992 14.5391 11.0234 14.5391 10.0938 13.9648C9.13672 13.418 8.5625 12.4336 8.5625 11.3125ZM11.625 10.4375C11.8438 10.4375 12.0625 10.2461 12.0625 10C12.0625 9.78125 11.8438 9.5625 11.625 9.5625C10.5312 9.5625 9.65625 10.4648 9.65625 11.5312C9.65625 11.7773 9.84766 11.9688 10.0938 11.9688C10.3125 11.9688 10.5312 11.7773 10.5312 11.5312C10.5312 10.9297 10.9961 10.4375 11.625 10.4375Z" fill="#000000"/>
</svg>
