<svg width="25" height="24" viewBox="0 0 25 24" fill="none" xmlns="http://www.w3.org/2000/svg">
<path d="M17.1875 8.71875L13.9062 12L17.1875 15.3125C17.5938 15.6875 17.5938 16.3438 17.1875 16.7188C16.8125 17.125 16.1562 17.125 15.7812 16.7188L12.5 13.4375L9.1875 16.7188C8.8125 17.125 8.15625 17.125 7.78125 16.7188C7.375 16.3438 7.375 15.6875 7.78125 15.3125L11.0625 12L7.78125 8.71875C7.375 8.34375 7.375 7.6875 7.78125 7.3125C8.15625 6.90625 8.8125 6.90625 9.1875 7.3125L12.5 10.5938L15.7812 7.3125C16.1562 6.90625 16.8125 6.90625 17.1875 7.3125C17.5938 7.6875 17.5938 8.34375 17.1875 8.71875Z" fill="#000000"/>
</svg>
