<svg width="14" height="17" viewBox="0 0 14 17" fill="none" xmlns="http://www.w3.org/2000/svg">
<path d="M3.5 0.5C3.75 0.5 4 0.75 4 1V2.5H10V1C10 0.75 10.2188 0.5 10.5 0.5C10.75 0.5 11 0.75 11 1V2.5H12C13.0938 2.5 14 3.40625 14 4.5V5.5V6.5V14.5C14 15.625 13.0938 16.5 12 16.5H2C0.875 16.5 0 15.625 0 14.5V6.5V5.5V4.5C0 3.40625 0.875 2.5 2 2.5H3V1C3 0.75 3.21875 0.5 3.5 0.5ZM13 6.5H1V14.5C1 15.0625 1.4375 15.5 2 15.5H12C12.5312 15.5 13 15.0625 13 14.5V6.5ZM12 3.5H2C1.4375 3.5 1 3.96875 1 4.5V5.5H13V4.5C13 3.96875 12.5312 3.5 12 3.5Z" fill="#000000"/>
</svg>
