<svg width="18" height="13" viewBox="0 0 18 13" fill="none" xmlns="http://www.w3.org/2000/svg">
<path d="M11.375 1H3.5V7.125C3.5 8.10938 4.26562 8.875 5.25 8.875H10.5C11.457 8.875 12.25 8.10938 12.25 7.125V6.25V5.375V1H11.8125H11.375ZM13.125 7.125C13.125 8.57422 11.9492 9.75 10.5 9.75H5.25C3.80078 9.75 2.625 8.57422 2.625 7.125V1C2.625 0.535156 3.00781 0.125 3.5 0.125H11.375H11.8125H12.25H14.4375C16.1055 0.125 17.5 1.51953 17.5 3.1875C17.5 4.88281 16.1055 6.25 14.4375 6.25H13.125V7.125ZM14.4375 5.375C15.6406 5.375 16.625 4.41797 16.625 3.1875C16.625 1.98438 15.6406 1 14.4375 1H13.125V5.375H14.4375ZM0.4375 11.5H15.3125C15.5312 11.5 15.75 11.7188 15.75 11.9375C15.75 12.1836 15.5312 12.375 15.3125 12.375H0.4375C0.191406 12.375 0 12.1836 0 11.9375C0 11.7188 0.191406 11.5 0.4375 11.5Z" fill="#0E59A0"/>
</svg>
