<svg width="25" height="24" viewBox="0 0 25 24" fill="none" xmlns="http://www.w3.org/2000/svg">
<path d="M13.1562 4.75C16.6562 4.75 19.5 7.59375 19.5 11.0938C19.5 11.4766 19.1992 11.75 18.8438 11.75C18.4609 11.75 18.1875 11.4766 18.1875 11.0938C18.1875 8.33203 15.918 6.0625 13.1562 6.0625C12.7734 6.0625 12.5 5.78906 12.5 5.40625C12.5 5.05078 12.7734 4.75 13.1562 4.75ZM13.375 10C13.8398 10 14.25 10.4102 14.25 10.875C14.25 11.3672 13.8398 11.75 13.375 11.75C12.8828 11.75 12.5 11.3672 12.5 10.875C12.5 10.4102 12.8828 10 13.375 10ZM12.5 8.03125C12.5 7.67578 12.7734 7.375 13.1562 7.375C15.207 7.375 16.875 9.04297 16.875 11.0938C16.875 11.4766 16.5742 11.75 16.2188 11.75C15.8359 11.75 15.5625 11.4766 15.5625 11.0938C15.5625 9.78125 14.4688 8.6875 13.1562 8.6875C12.7734 8.6875 12.5 8.41406 12.5 8.03125ZM14.4961 12.5977C14.7969 12.2148 15.3164 12.1055 15.7539 12.2969L18.8164 13.6094C19.3086 13.8008 19.582 14.3203 19.4727 14.8398L18.8164 17.9023C18.707 18.3945 18.2422 18.75 17.75 18.75C17.5586 18.75 17.3945 18.75 17.2305 18.75C16.957 18.75 16.6836 18.7227 16.4375 18.6953C10.2852 18.0391 5.5 12.8438 5.5 6.5C5.5 6.00781 5.85547 5.54297 6.34766 5.43359L9.41016 4.77734C9.92969 4.66797 10.4492 4.94141 10.6406 5.43359L11.9531 8.49609C12.1445 8.93359 12.0352 9.45312 11.6523 9.75391L10.5312 10.6836C11.2695 11.9414 12.3086 12.9805 13.5664 13.7188L14.4961 12.5977ZM18.1328 14.7305L15.3984 13.5547L14.6055 14.5391C14.1953 15.0312 13.4844 15.168 12.9102 14.8398C11.4609 13.9922 10.2578 12.7891 9.41016 11.3398C9.08203 10.7656 9.21875 10.0547 9.71094 9.64453L10.6953 8.85156L9.51953 6.11719L6.8125 6.69141C6.89453 12.5977 11.6523 17.3555 17.5586 17.4375L18.1328 14.7305Z" fill="#000000"/>
</svg>
