<svg width="20" height="14" viewBox="0 0 20 14" fill="none" xmlns="http://www.w3.org/2000/svg">
<path d="M1.625 1.625V10.625C1.625 11.8906 2.60938 12.875 3.875 12.875H10.625C11.8555 12.875 12.875 11.8906 12.875 10.625V1.625H12.3125H1.625ZM14 1.625V7.25H15.6875C17.2344 7.25 18.5 6.01953 18.5 4.4375C18.5 2.89062 17.2344 1.625 15.6875 1.625H14ZM14 8.375V10.625C14 12.4883 12.4883 14 10.625 14H3.875C2.01172 14 0.5 12.4883 0.5 10.625V1.625C0.5 1.02734 0.992188 0.5 1.625 0.5H12.3125H12.875H15.6875C17.832 0.5 19.625 2.29297 19.625 4.4375C19.625 6.61719 17.832 8.375 15.6875 8.375H14Z" fill="#0E59A0"/>
</svg>
