<svg width="11" height="13" viewBox="0 0 11 13" fill="none" xmlns="http://www.w3.org/2000/svg">
<path d="M0.576 12.5V10.66H2.176V4.276C2.176 3.49733 2.336 2.82 2.656 2.244C2.98667 1.65733 3.45067 1.204 4.048 0.884C4.656 0.553333 5.37067 0.388 6.192 0.388C6.84267 0.388 7.44 0.510666 7.984 0.756C8.53867 1.00133 9.00267 1.348 9.376 1.796C9.74933 2.23333 9.97333 2.756 10.048 3.364L8.128 3.956C8.05333 3.42267 7.83467 3.02267 7.472 2.756C7.12 2.47867 6.69333 2.34 6.192 2.34C5.60533 2.34 5.152 2.51067 4.832 2.852C4.512 3.18267 4.352 3.65733 4.352 4.276V10.66H9.52V12.5H0.576ZM0.576 7.108V5.764H7.296V7.108H0.576Z" fill="#000000"/>
</svg>
