<svg width="24" height="24" viewBox="0 0 24 24" fill="none" xmlns="http://www.w3.org/2000/svg">
<path d="M10.5234 6.17188L10.0039 6.9375H13.9688L13.4492 6.17188C13.4219 6.11719 13.3398 6.0625 13.2578 6.0625H10.7148C10.6328 6.0625 10.5508 6.11719 10.5234 6.17188ZM14.543 5.43359L15.5547 6.9375H15.9375H17.25H17.4688C17.8242 6.9375 18.125 7.23828 18.125 7.59375C18.125 7.97656 17.8242 8.25 17.4688 8.25H17.25V16.5625C17.25 17.793 16.2656 18.75 15.0625 18.75H8.9375C7.70703 18.75 6.75 17.793 6.75 16.5625V8.25H6.53125C6.14844 8.25 5.875 7.97656 5.875 7.59375C5.875 7.23828 6.14844 6.9375 6.53125 6.9375H6.75H8.0625H8.41797L9.42969 5.43359C9.70312 5.02344 10.1953 4.75 10.7148 4.75H13.2578C13.7773 4.75 14.2695 5.02344 14.543 5.43359ZM8.0625 8.25V16.5625C8.0625 17.0547 8.44531 17.4375 8.9375 17.4375H15.0625C15.5273 17.4375 15.9375 17.0547 15.9375 16.5625V8.25H8.0625ZM10.25 10V15.6875C10.25 15.9336 10.0312 16.125 9.8125 16.125C9.56641 16.125 9.375 15.9336 9.375 15.6875V10C9.375 9.78125 9.56641 9.5625 9.8125 9.5625C10.0312 9.5625 10.25 9.78125 10.25 10ZM12.4375 10V15.6875C12.4375 15.9336 12.2188 16.125 12 16.125C11.7539 16.125 11.5625 15.9336 11.5625 15.6875V10C11.5625 9.78125 11.7539 9.5625 12 9.5625C12.2188 9.5625 12.4375 9.78125 12.4375 10ZM14.625 10V15.6875C14.625 15.9336 14.4062 16.125 14.1875 16.125C13.9414 16.125 13.75 15.9336 13.75 15.6875V10C13.75 9.78125 13.9414 9.5625 14.1875 9.5625C14.4062 9.5625 14.625 9.78125 14.625 10Z" fill="#000000"/>
</svg>
