<svg width="24" height="24" viewBox="0 0 24 24" fill="none" xmlns="http://www.w3.org/2000/svg">
<path d="M5.98438 14.6211C6.09375 14.2383 6.3125 13.8828 6.58594 13.6094L14.8984 5.29688C15.582 4.61328 16.7031 4.61328 17.3867 5.29688L18.4531 6.36328C18.5352 6.44531 18.6172 6.55469 18.6719 6.63672C19.1367 7.32031 19.0547 8.25 18.4531 8.85156L10.1406 17.1641C10.1133 17.1914 10.0586 17.2188 10.0312 17.2734C9.75781 17.4922 9.45703 17.6562 9.12891 17.7656L6.99609 18.3945L5.82031 18.75C5.60156 18.8047 5.35547 18.75 5.19141 18.5586C5 18.3945 4.94531 18.1484 5.02734 17.9297L5.35547 16.7539L5.98438 14.6211ZM7.24219 15.0039L7.05078 15.6328L6.61328 17.1367L8.11719 16.6992L8.74609 16.5078C8.9375 16.4531 9.07422 16.3711 9.21094 16.2344L15.4727 9.97266L13.7773 8.27734L7.51562 14.5391C7.48828 14.5391 7.48828 14.5664 7.46094 14.5938C7.35156 14.7031 7.29688 14.8398 7.24219 15.0039Z" fill="#000000"/>
</svg>
