<svg width="13" height="13" viewBox="0 0 13 13" fill="none" xmlns="http://www.w3.org/2000/svg">
<path d="M2.125 1.5C1.63281 1.5 1.25 1.91016 1.25 2.375V11.125C1.25 11.6172 1.63281 12 2.125 12H10.875C11.3398 12 11.75 11.6172 11.75 11.125V2.375C11.75 1.91016 11.3398 1.5 10.875 1.5H2.125ZM0.375 2.375C0.375 1.41797 1.14062 0.625 2.125 0.625H10.875C11.832 0.625 12.625 1.41797 12.625 2.375V11.125C12.625 12.1094 11.832 12.875 10.875 12.875H2.125C1.14062 12.875 0.375 12.1094 0.375 11.125V2.375ZM6.5 3.25C6.71875 3.25 6.9375 3.46875 6.9375 3.6875V7.1875C6.9375 7.43359 6.71875 7.625 6.5 7.625C6.25391 7.625 6.0625 7.43359 6.0625 7.1875V3.6875C6.0625 3.46875 6.25391 3.25 6.5 3.25ZM5.84375 9.375C5.84375 9.01953 6.11719 8.71875 6.5 8.71875C6.85547 8.71875 7.15625 9.01953 7.15625 9.375C7.15625 9.75781 6.85547 10.0312 6.5 10.0312C6.11719 10.0312 5.84375 9.75781 5.84375 9.375Z" fill="#000000"/>
</svg>
