<svg width="19" height="17" viewBox="0 0 19 17" fill="none" xmlns="http://www.w3.org/2000/svg">
<path d="M14.9688 4.125C15 4.21875 15 4.28125 15 4.375C15.0938 5.8125 14.875 7.25 14.4062 8.59375L17.0938 9.59375C17.2188 7.53125 16.4375 5.53125 14.9688 4.125ZM12.8125 2.71875C12.7188 2.65625 12.625 2.625 12.5 2.59375C12.4688 2.5625 12.4375 2.5625 12.4062 2.5625C11.6562 2.3125 10.8125 2.5 10.2812 3.09375C9.375 4.03125 8.6875 5.125 8.21875 6.34375L13.4688 8.25C13.9062 7.03125 14.0938 5.75 14 4.4375C13.9688 3.6875 13.5 3.03125 12.8125 2.71875ZM12.7188 1.59375C12.75 1.625 12.7812 1.625 12.8125 1.625L13 1.6875C13.0625 1.71875 13.1562 1.75 13.2188 1.78125C16.4688 3.15625 18.375 6.4375 18.0938 9.8125C18.0312 10.4062 17.4062 10.75 16.8438 10.5625L14.0625 9.53125L13.125 9.1875L7.90625 7.28125L6.9375 6.9375L4.0625 5.90625C3.5 5.6875 3.25 5.03125 3.59375 4.53125C5.59375 1.71875 9.28125 0.40625 12.7188 1.59375ZM9.78125 2.15625C7.71875 2.28125 5.75 3.28125 4.5 5L7.28125 6C7.8125 4.65625 8.5625 3.4375 9.5625 2.40625C9.625 2.3125 9.71875 2.25 9.78125 2.15625ZM0.75 16H7.09375L9.65625 9L10.5938 9.34375L8.15625 16H17.75C18 16 18.25 16.25 18.25 16.5C18.25 16.7812 18 17 17.75 17H0.75C0.46875 17 0.25 16.7812 0.25 16.5C0.25 16.25 0.46875 16 0.75 16Z" fill="#0E59A0"/>
</svg>
