<svg width="14" height="15" viewBox="0 0 14 15" fill="none" xmlns="http://www.w3.org/2000/svg">
<path d="M5.6875 5.5625C5.6875 5.86328 5.71484 6.13672 5.76953 6.41016C5.82422 6.62891 5.76953 6.84766 5.60547 7.01172L1.3125 11.3047V13.4375H3.0625V12.3438C3.0625 11.9883 3.33594 11.6875 3.71875 11.6875H4.8125V10.5938C4.8125 10.2383 5.08594 9.9375 5.46875 9.9375H6.94531L7.73828 9.14453C7.90234 8.98047 8.12109 8.92578 8.33984 8.98047C8.61328 9.03516 8.88672 9.0625 9.1875 9.0625C11.1016 9.0625 12.6875 7.50391 12.6875 5.5625C12.6875 3.64844 11.1016 2.0625 9.1875 2.0625C7.24609 2.0625 5.6875 3.64844 5.6875 5.5625ZM9.1875 0.75C11.8398 0.75 14 2.91016 14 5.5625C14 8.24219 11.8398 10.375 9.1875 10.375C8.91406 10.375 8.66797 10.375 8.42188 10.3203L7.68359 11.0586C7.54688 11.1953 7.38281 11.25 7.21875 11.25H6.125V12.3438C6.125 12.7266 5.82422 13 5.46875 13H4.375V14.0938C4.375 14.4766 4.07422 14.75 3.71875 14.75H0.65625C0.273438 14.75 0 14.4766 0 14.0938V11.0312C0 10.8672 0.0546875 10.7031 0.191406 10.5664L4.42969 6.32812C4.375 6.08203 4.375 5.83594 4.375 5.5625C4.375 2.91016 6.50781 0.75 9.1875 0.75ZM10.0625 5.5625C9.57031 5.5625 9.1875 5.17969 9.1875 4.6875C9.1875 4.22266 9.57031 3.8125 10.0625 3.8125C10.5273 3.8125 10.9375 4.22266 10.9375 4.6875C10.9375 5.17969 10.5273 5.5625 10.0625 5.5625Z" fill="#7888A9"/>
</svg>
