<svg width="25" height="24" viewBox="0 0 25 24" fill="none" xmlns="http://www.w3.org/2000/svg">
<path d="M6.81641 12.2422C6.67969 12.1055 6.625 11.9414 6.625 11.75C6.625 11.5859 6.67969 11.4219 6.81641 11.2852L11.6289 6.69141C11.9023 6.44531 12.3125 6.44531 12.5586 6.71875C12.8047 6.96484 12.8047 7.40234 12.5312 7.64844L8.89453 11.0938H18.2188C18.5742 11.0938 18.875 11.3945 18.875 11.75C18.875 12.1328 18.5742 12.4062 18.2188 12.4062H8.89453L12.5312 15.8789C12.8047 16.125 12.8047 16.5352 12.5586 16.8086C12.3125 17.082 11.9023 17.082 11.6289 16.8359L6.81641 12.2422Z" fill="#000000"/>
</svg>
