<svg width="12" height="15" viewBox="0 0 12 15" fill="none" xmlns="http://www.w3.org/2000/svg">
<path d="M9.9375 6C9.9375 3.83984 8.16016 2.0625 6 2.0625C3.8125 2.0625 2.0625 3.83984 2.0625 6C2.0625 6.35547 2.17188 6.875 2.47266 7.58594C2.74609 8.24219 3.15625 9.00781 3.62109 9.77344C4.41406 11.0312 5.31641 12.2344 6 13.1094C6.65625 12.2344 7.55859 11.0312 8.35156 9.77344C8.81641 9.00781 9.22656 8.24219 9.5 7.58594C9.80078 6.875 9.9375 6.35547 9.9375 6ZM11.25 6C11.25 8.40625 8.05078 12.6445 6.62891 14.4219C6.30078 14.832 5.67188 14.832 5.34375 14.4219C3.94922 12.6445 0.75 8.40625 0.75 6C0.75 3.10156 3.10156 0.75 6 0.75C8.89844 0.75 11.25 3.10156 11.25 6ZM6.875 6C6.875 5.53516 6.46484 5.125 6 5.125C5.50781 5.125 5.125 5.53516 5.125 6C5.125 6.49219 5.50781 6.875 6 6.875C6.46484 6.875 6.875 6.49219 6.875 6ZM3.8125 6C3.8125 5.23438 4.22266 4.52344 4.90625 4.11328C5.5625 3.73047 6.41016 3.73047 7.09375 4.11328C7.75 4.52344 8.1875 5.23438 8.1875 6C8.1875 6.79297 7.75 7.50391 7.09375 7.91406C6.41016 8.29688 5.5625 8.29688 4.90625 7.91406C4.22266 7.50391 3.8125 6.79297 3.8125 6Z" fill="#000000"/>
</svg>
