<svg width="24" height="24" viewBox="0 0 24 24" fill="none" xmlns="http://www.w3.org/2000/svg">
<path d="M18.8086 12.2148L15.3086 15.7148C15.0352 15.9883 14.625 15.9883 14.3789 15.7148C14.1055 15.4688 14.1055 15.0586 14.3789 14.7852L16.7578 12.4062H10.0312C9.64844 12.4062 9.375 12.1328 9.375 11.75C9.375 11.3945 9.64844 11.0938 10.0312 11.0938H16.7578L14.3789 8.71484C14.1055 8.46875 14.1055 8.05859 14.3789 7.78516C14.625 7.53906 15.0352 7.53906 15.3086 7.78516L18.8086 11.3125C19.0547 11.5586 19.0547 11.9688 18.8086 12.2148ZM9.59375 6.9375H7.40625C6.77734 6.9375 6.3125 7.42969 6.3125 8.03125V15.4688C6.3125 16.0977 6.77734 16.5625 7.40625 16.5625H9.59375C9.94922 16.5625 10.25 16.8633 10.25 17.2188C10.25 17.6016 9.94922 17.875 9.59375 17.875H7.40625C6.06641 17.875 5 16.8086 5 15.4688V8.03125C5 6.71875 6.06641 5.625 7.40625 5.625H9.59375C9.94922 5.625 10.25 5.92578 10.25 6.28125C10.25 6.66406 9.94922 6.9375 9.59375 6.9375Z" fill="#000000"/>
</svg>
