<svg width="25" height="24" viewBox="0 0 25 24" fill="none" xmlns="http://www.w3.org/2000/svg">
<path d="M8.31641 5.48828L7.90625 9.39844V9.78125C7.90625 10.4102 8.37109 10.875 9 10.875H9.875H10.75C11.3516 10.875 11.8438 10.4102 11.8438 9.78125V9.39844L11.4062 5.48828C11.3516 5.13281 11.625 4.80469 11.9805 4.77734C12.3359 4.72266 12.6641 4.99609 12.6914 5.35156L13.1289 9.28906L13.1562 9.31641V9.34375V9.78125C13.1562 11.1211 12.0625 12.1875 10.75 12.1875H10.5312V18.0938C10.5312 18.4766 10.2305 18.75 9.875 18.75C9.49219 18.75 9.21875 18.4766 9.21875 18.0938V12.1875H9C7.66016 12.1875 6.59375 11.1211 6.59375 9.78125V9.34375V9.31641V9.28906L7.03125 5.35156C7.05859 4.99609 7.38672 4.72266 7.74219 4.77734C8.09766 4.80469 8.37109 5.13281 8.31641 5.48828ZM10.5312 5.40625V9.34375C10.5312 9.72656 10.2305 10 9.875 10C9.49219 10 9.21875 9.72656 9.21875 9.34375V5.40625C9.21875 5.05078 9.49219 4.75 9.875 4.75C10.2305 4.75 10.5312 5.05078 10.5312 5.40625ZM15.5625 9.5625V12.625C15.5625 12.8711 15.7539 13.0625 16 13.0625H17.3125V11.5312V6.28125C17.0938 6.36328 16.9023 6.5 16.6836 6.69141C16.1367 7.15625 15.5625 8.00391 15.5625 9.5625ZM17.3125 14.375H16C15.0156 14.375 14.25 13.6094 14.25 12.625V9.5625C14.25 5.625 17.3125 4.75 17.75 4.75C18.2148 4.75 18.625 5.16016 18.625 5.625V11.5312V13.0625V14.375V18.0938C18.625 18.4766 18.3242 18.75 17.9688 18.75C17.5859 18.75 17.3125 18.4766 17.3125 18.0938V14.375Z" fill="#000000"/>
</svg>
