<svg width="24" height="24" viewBox="0 0 24 24" fill="none" xmlns="http://www.w3.org/2000/svg">
<path d="M18.5898 15.0586L15.9648 17.6836C15.6914 17.957 15.2812 17.957 15.0352 17.6836L12.4102 15.0586C12.1367 14.8125 12.1367 14.4023 12.4102 14.1562C12.6562 13.8828 13.0664 13.8828 13.3398 14.1562L14.8438 15.6602V6.28125C14.8438 5.92578 15.1172 5.625 15.5 5.625C15.8555 5.625 16.1562 5.92578 16.1562 6.28125V15.6602L17.6602 14.1562C17.9062 13.8828 18.3164 13.8828 18.5898 14.1562C18.8359 14.4023 18.8359 14.8125 18.5898 15.0586ZM8.96484 5.81641L11.5625 8.44141C11.8359 8.71484 11.8359 9.125 11.5625 9.37109C11.3164 9.64453 10.9062 9.64453 10.6328 9.37109L9.12891 7.86719V17.2188C9.12891 17.6016 8.85547 17.875 8.47266 17.875C8.11719 17.875 7.81641 17.6016 7.81641 17.2188V7.86719L6.3125 9.37109C6.06641 9.64453 5.65625 9.64453 5.41016 9.37109C5.13672 9.125 5.13672 8.71484 5.41016 8.44141L8.03516 5.81641C8.28125 5.57031 8.69141 5.57031 8.96484 5.81641Z" fill="#000000"/>
</svg>
