<svg width="24" height="24" viewBox="0 0 24 24" fill="none" xmlns="http://www.w3.org/2000/svg">
<path d="M9.8125 7.15625C9.8125 7.18359 9.8125 7.18359 9.8125 7.21094C9.83984 7.23828 9.86719 7.29297 9.94922 7.34766C9.94922 7.375 9.97656 7.375 9.97656 7.375C9.45703 7.40234 8.96484 7.42969 8.5 7.51172V7.15625C8.5 6.66406 8.74609 6.28125 9.07422 6.00781C9.375 5.70703 9.78516 5.48828 10.25 5.32422C11.1797 4.96875 12.4102 4.75 13.75 4.75C15.0625 4.75 16.293 4.96875 17.2227 5.32422C17.6875 5.48828 18.0977 5.70703 18.3984 6.00781C18.7266 6.28125 19 6.66406 19 7.15625V10V12.8438C19 13.3359 18.7266 13.7461 18.3984 14.0195C18.0977 14.293 17.6875 14.5391 17.2227 14.7031C16.9492 14.8125 16.6758 14.8945 16.375 14.9766V13.6094C16.5117 13.582 16.6211 13.5273 16.7578 13.4727C17.1133 13.3359 17.3867 13.1719 17.5234 13.0625C17.6055 12.9805 17.6328 12.9258 17.6602 12.8984C17.6875 12.8711 17.6875 12.8711 17.6875 12.8711V11.668C17.5234 11.7227 17.3867 11.8047 17.2227 11.8594C16.9492 11.9688 16.6758 12.0508 16.375 12.1328V10.7656C16.5117 10.7383 16.6211 10.6836 16.7578 10.6289C17.1133 10.4922 17.3867 10.3281 17.5234 10.2188C17.6055 10.1367 17.6328 10.082 17.6602 10.0547C17.6875 10.0273 17.6875 10.0273 17.6875 10.0273V8.82422C17.5234 8.87891 17.3867 8.96094 17.2227 9.01562C16.8398 9.15234 16.4297 9.28906 15.9648 9.37109C15.8281 9.15234 15.6641 8.98828 15.5 8.85156C15.2266 8.60547 14.8984 8.38672 14.5703 8.22266C15.4453 8.16797 16.1836 8.00391 16.7578 7.78516C17.1133 7.64844 17.3867 7.48438 17.5234 7.34766C17.6055 7.29297 17.6328 7.23828 17.6602 7.21094C17.6875 7.18359 17.6875 7.18359 17.6875 7.15625C17.6875 7.15625 17.6875 7.15625 17.6602 7.12891C17.6328 7.10156 17.6055 7.04688 17.5234 6.96484C17.3867 6.82812 17.1133 6.69141 16.7578 6.55469C16.0195 6.25391 14.9531 6.0625 13.75 6.0625C12.5195 6.0625 11.4531 6.25391 10.7148 6.55469C10.3594 6.69141 10.0859 6.82812 9.94922 6.96484C9.86719 7.04688 9.83984 7.10156 9.8125 7.12891C9.8125 7.15625 9.8125 7.15625 9.8125 7.15625ZM6.3125 10.6562C6.3125 10.6836 6.3125 10.6836 6.3125 10.7109C6.33984 10.7383 6.36719 10.793 6.44922 10.8477C6.58594 10.9844 6.85938 11.1484 7.21484 11.2852C7.95312 11.5586 9.01953 11.75 10.25 11.75C11.4531 11.75 12.5195 11.5586 13.2578 11.2852C13.6133 11.1484 13.8867 10.9844 14.0234 10.8477C14.1055 10.793 14.1328 10.7383 14.1602 10.7109C14.1602 10.6836 14.1875 10.6836 14.1875 10.6562C14.1875 10.6562 14.1875 10.6562 14.1602 10.6289C14.1328 10.6016 14.1055 10.5469 14.0234 10.4648C13.8867 10.3281 13.6133 10.1914 13.2578 10.0547C12.5195 9.75391 11.4531 9.58984 10.25 9.58984C9.01953 9.58984 7.95312 9.75391 7.21484 10.0547C6.85938 10.1914 6.58594 10.3555 6.44922 10.4648C6.36719 10.5469 6.33984 10.6016 6.3125 10.6289C6.3125 10.6562 6.3125 10.6562 6.3125 10.6562ZM5 10.6562C5 10.1641 5.24609 9.78125 5.57422 9.50781C5.875 9.20703 6.28516 8.98828 6.75 8.82422C7.67969 8.46875 8.91016 8.25 10.25 8.25C11.5625 8.25 12.793 8.46875 13.7227 8.82422C14.1875 8.98828 14.5977 9.20703 14.8984 9.50781C15.2266 9.78125 15.5 10.1641 15.5 10.6562V13.5V16.3438C15.5 16.8359 15.2266 17.2461 14.8984 17.5195C14.5977 17.793 14.1875 18.0391 13.7227 18.2031C12.793 18.5586 11.5625 18.75 10.25 18.75C8.91016 18.75 7.67969 18.5586 6.75 18.2031C6.28516 18.0391 5.875 17.8203 5.57422 17.5195C5.24609 17.2461 5 16.8359 5 16.3438V13.5V10.6562ZM14.1875 13.5V12.3242C14.0234 12.3789 13.8867 12.4609 13.7227 12.5156C12.793 12.8711 11.5625 13.0625 10.25 13.0625C8.91016 13.0625 7.67969 12.8711 6.75 12.5156C6.58594 12.4609 6.44922 12.4062 6.3125 12.3242V13.5C6.3125 13.5273 6.3125 13.5273 6.3125 13.5547C6.33984 13.582 6.36719 13.6367 6.44922 13.6914C6.58594 13.8281 6.85938 13.9922 7.21484 14.1289C7.95312 14.4023 9.01953 14.5938 10.25 14.5938C11.4531 14.5938 12.5195 14.4023 13.2578 14.1289C13.6133 13.9922 13.8867 13.8281 14.0234 13.6914C14.1055 13.6367 14.1328 13.582 14.1602 13.5547C14.1602 13.5273 14.1875 13.5273 14.1875 13.5ZM6.75 15.3594C6.58594 15.3047 6.44922 15.25 6.3125 15.168V16.3438C6.3125 16.3438 6.3125 16.3711 6.3125 16.3984C6.33984 16.4258 6.36719 16.4805 6.44922 16.5352C6.58594 16.6719 6.85938 16.8359 7.21484 16.9727C7.95312 17.2461 9.01953 17.4375 10.25 17.4375C11.4531 17.4375 12.5195 17.2461 13.2578 16.9727C13.6133 16.8359 13.8867 16.6719 14.0234 16.5352C14.1055 16.4805 14.1328 16.4258 14.1602 16.3984C14.1875 16.3711 14.1875 16.3438 14.1875 16.3438V15.168C14.0234 15.2227 13.8867 15.3047 13.7227 15.3594C12.793 15.7148 11.5625 15.9062 10.25 15.9062C8.91016 15.9062 7.67969 15.7148 6.75 15.3594Z" fill="#000000"/>
</svg>
