<svg width="25" height="24" viewBox="0 0 25 24" fill="none" xmlns="http://www.w3.org/2000/svg">
<path d="M18.1562 12.2422L13.3438 16.8359C13.0703 17.082 12.6602 17.082 12.4141 16.8086C12.168 16.5352 12.168 16.125 12.4414 15.8789L16.0781 12.4062H6.78125C6.39844 12.4062 6.125 12.1328 6.125 11.75C6.125 11.3945 6.39844 11.0938 6.78125 11.0938H16.0781L12.4414 7.64844C12.168 7.40234 12.168 6.96484 12.4141 6.71875C12.6602 6.44531 13.0977 6.44531 13.3438 6.69141L18.1562 11.2852C18.293 11.4219 18.375 11.5859 18.375 11.75C18.375 11.9414 18.293 12.1055 18.1562 12.2422Z" fill="#000000"/>
</svg>
