<svg width="24" height="24" viewBox="0 0 24 24" fill="none" xmlns="http://www.w3.org/2000/svg">
<path d="M15.0625 10.4375C15.0625 8.87891 14.2148 7.45703 12.875 6.66406C11.5078 5.87109 9.83984 5.87109 8.5 6.66406C7.13281 7.45703 6.3125 8.87891 6.3125 10.4375C6.3125 12.0234 7.13281 13.4453 8.5 14.2383C9.83984 15.0312 11.5078 15.0312 12.875 14.2383C14.2148 13.4453 15.0625 12.0234 15.0625 10.4375ZM14.2148 14.9219C13.2305 15.6875 12 16.125 10.6875 16.125C7.54297 16.125 5 13.582 5 10.4375C5 7.32031 7.54297 4.75 10.6875 4.75C13.8047 4.75 16.375 7.32031 16.375 10.4375C16.375 11.7773 15.9102 13.0078 15.1445 13.9922L18.8086 17.6289C19.0547 17.9023 19.0547 18.3125 18.8086 18.5586C18.5352 18.832 18.125 18.832 17.8789 18.5586L14.2148 14.9219Z" fill="#000000"/>
</svg>
