<svg width="24" height="24" viewBox="0 0 24 24" fill="none" xmlns="http://www.w3.org/2000/svg">
<path d="M12.875 5.625C12.875 6.11719 12.4648 6.5 12 6.5C11.5078 6.5 11.125 6.11719 11.125 5.625C11.125 5.16016 11.5078 4.75 12 4.75C12.4648 4.75 12.875 5.16016 12.875 5.625ZM12.875 17.875C12.875 18.3672 12.4648 18.75 12 18.75C11.5078 18.75 11.125 18.3672 11.125 17.875C11.125 17.4102 11.5078 17 12 17C12.4648 17 12.875 17.4102 12.875 17.875ZM17.25 11.75C17.25 11.2852 17.6328 10.875 18.125 10.875C18.5898 10.875 19 11.2852 19 11.75C19 12.2422 18.5898 12.625 18.125 12.625C17.6328 12.625 17.25 12.2422 17.25 11.75ZM5.875 12.625C5.38281 12.625 5 12.2422 5 11.75C5 11.2852 5.38281 10.875 5.875 10.875C6.33984 10.875 6.75 11.2852 6.75 11.75C6.75 12.2422 6.33984 12.625 5.875 12.625ZM7.05078 16.6992C6.69531 16.3711 6.69531 15.8242 7.05078 15.4688C7.37891 15.1406 7.92578 15.1406 8.28125 15.4688C8.60938 15.8242 8.60938 16.3711 8.28125 16.6992C7.92578 17.0547 7.37891 17.0547 7.05078 16.6992ZM15.6914 16.6992C15.4727 16.5078 15.3633 16.1523 15.4453 15.8516C15.5273 15.5508 15.7734 15.3047 16.0742 15.2227C16.375 15.1406 16.7305 15.25 16.9492 15.4688C17.168 15.6875 17.2773 16.0156 17.1953 16.3438C17.1133 16.6445 16.8672 16.8906 16.5664 16.9727C16.2383 17.0547 15.9102 16.9453 15.6914 16.6992ZM7.05078 6.80078C7.37891 6.47266 7.92578 6.47266 8.28125 6.80078C8.60938 7.15625 8.60938 7.70312 8.28125 8.05859C7.92578 8.38672 7.37891 8.38672 7.05078 8.05859C6.69531 7.70312 6.69531 7.15625 7.05078 6.80078Z" fill="#0E1A34"/>
</svg>
