<svg width="20" height="19" viewBox="0 0 20 19" fill="none" xmlns="http://www.w3.org/2000/svg">
<path d="M9.75 1.375C5.39062 1.375 1.875 4.92578 1.875 9.25C1.875 13.6094 5.39062 17.125 9.75 17.125C13.0898 17.125 15.9375 15.0508 17.0977 12.0977C17.2031 11.8164 17.5195 11.6758 17.8008 11.7812C18.1172 11.8867 18.2578 12.2031 18.1523 12.5195C16.8516 15.8594 13.5469 18.25 9.75 18.25C4.75781 18.25 0.75 14.2422 0.75 9.25C0.75 4.29297 4.75781 0.25 9.75 0.25C12.668 0.25 15.3047 1.69141 16.9219 3.87109C17.1328 4.11719 17.0625 4.46875 16.8164 4.64453C16.5703 4.85547 16.2188 4.78516 16.043 4.53906C14.6016 2.64062 12.3164 1.375 9.75 1.375ZM13.7578 14.207C13.5117 14.3828 13.1602 14.3828 12.9492 14.1367C12.3516 13.3984 11.2617 12.625 9.75 12.625C8.20312 12.625 7.14844 13.3984 6.51562 14.1367C6.30469 14.3828 5.95312 14.3828 5.70703 14.207C5.46094 13.9961 5.46094 13.6445 5.63672 13.3984C6.44531 12.4844 7.78125 11.5 9.75 11.5C10.207 11.5 10.6641 11.5703 11.0508 11.6758L16.3945 6.57812C17.0625 5.91016 18.1523 5.91016 18.8203 6.61328C19.5234 7.28125 19.5234 8.44141 18.7852 9.10938L13.9688 13.7148C13.9688 13.8906 13.8984 14.0664 13.7578 14.207ZM12.2109 12.1328C12.5977 12.3438 12.9492 12.5898 13.2656 12.8359L13.5469 12.5547L13.3711 12.3789C13.1953 12.2031 13.1953 11.957 13.3711 11.7812C13.5469 11.6055 13.793 11.6055 13.9688 11.7812L14.1797 11.957L14.707 11.4648L14.4961 11.2539C14.3203 11.0781 14.3203 10.832 14.4961 10.6562C14.6719 10.4805 14.918 10.4805 15.0938 10.6562L15.3047 10.8672L15.8672 10.375L15.6211 10.1289C15.4805 9.95312 15.4805 9.70703 15.6211 9.53125C15.7969 9.35547 16.0781 9.35547 16.2188 9.53125L16.4648 9.77734L17.0273 9.25L16.7461 9.00391C16.6055 8.82812 16.6055 8.58203 16.7461 8.40625C16.9219 8.23047 17.2031 8.23047 17.3438 8.40625L17.625 8.6875L18.0469 8.30078C18.293 8.05469 18.293 7.63281 18.0469 7.38672C17.8008 7.14062 17.4141 7.14062 17.168 7.38672L12.2109 12.1328ZM6.9375 6.71875C7.39453 6.71875 7.78125 7.10547 7.78125 7.5625C7.78125 8.05469 7.39453 8.40625 6.9375 8.40625C6.48047 8.40625 6.09375 8.05469 6.09375 7.5625C6.09375 7.10547 6.48047 6.71875 6.9375 6.71875ZM11.7188 7.5625C11.7188 7.10547 12.1055 6.71875 12.5625 6.71875C13.0195 6.71875 13.4062 7.10547 13.4062 7.5625C13.4062 8.05469 13.0195 8.40625 12.5625 8.40625C12.1055 8.40625 11.7188 8.05469 11.7188 7.5625Z" fill="#0E59A0"/>
</svg>
