<svg width="14" height="19" viewBox="0 0 14 19" fill="none" xmlns="http://www.w3.org/2000/svg">
<path d="M0 17.6875C0 17.4062 0.246094 17.125 0.5625 17.125H1.125V15.5781C1.125 14.4531 1.47656 13.3633 2.14453 12.4844L4.60547 9.25L2.14453 6.05078C1.47656 5.17188 1.125 4.08203 1.125 2.95703V1.375H0.5625C0.246094 1.375 0 1.12891 0 0.8125C0 0.53125 0.246094 0.25 0.5625 0.25H12.9375C13.2188 0.25 13.5 0.53125 13.5 0.8125C13.5 1.12891 13.2188 1.375 12.9375 1.375H12.375V2.95703C12.375 4.08203 11.9883 5.13672 11.3203 6.05078L8.85938 9.25L11.3203 12.4844C11.9883 13.3633 12.375 14.4531 12.375 15.5781V17.125H12.9375C13.2188 17.125 13.5 17.4062 13.5 17.6875C13.5 18.0039 13.2188 18.25 12.9375 18.25H0.5625C0.246094 18.25 0 18.0039 0 17.6875ZM2.25 17.125H11.25V15.5781C11.25 14.6992 10.9336 13.8555 10.4414 13.1875L7.69922 9.60156C7.52344 9.39062 7.52344 9.10938 7.69922 8.93359L10.4414 5.34766C10.9336 4.67969 11.25 3.83594 11.25 2.95703V1.375H2.25V2.95703C2.25 3.83594 2.53125 4.67969 3.05859 5.34766L5.76562 8.93359C5.94141 9.10938 5.94141 9.39062 5.76562 9.60156L3.05859 13.1875C2.53125 13.8555 2.25 14.6992 2.25 15.5781V17.125ZM7.20703 7.35156C7.10156 7.49219 6.92578 7.5625 6.75 7.5625C6.53906 7.5625 6.39844 7.49219 6.29297 7.35156L3.48047 3.41406C3.33984 3.23828 3.33984 3.02734 3.41016 2.81641C3.51562 2.64062 3.72656 2.5 3.9375 2.5H6.75H9.5625C9.77344 2.5 9.94922 2.64062 10.0547 2.81641C10.125 2.99219 10.125 3.23828 10.0195 3.41406L7.20703 7.35156ZM6.75 3.625H5.02734L6.75 6.05078L8.4375 3.625H6.75Z" fill="#0E59A0"/>
</svg>
