<svg width="14" height="15" viewBox="0 0 14 15" fill="none" xmlns="http://www.w3.org/2000/svg">
<path d="M2 1.5C1.4375 1.5 1 1.96875 1 2.5V12.5C1 13.0625 1.4375 13.5 2 13.5H12C12.5312 13.5 13 13.0625 13 12.5V2.5C13 1.96875 12.5312 1.5 12 1.5H2ZM0 2.5C0 1.40625 0.875 0.5 2 0.5H12C13.0938 0.5 14 1.40625 14 2.5V12.5C14 13.625 13.0938 14.5 12 14.5H2C0.875 14.5 0 13.625 0 12.5V2.5ZM10.3438 5.875L6.34375 9.875C6.15625 10.0625 5.8125 10.0625 5.625 9.875L3.625 7.875C3.4375 7.6875 3.4375 7.34375 3.625 7.15625C3.8125 6.96875 4.15625 6.96875 4.34375 7.15625L6 8.8125L9.625 5.15625C9.8125 4.96875 10.1562 4.96875 10.3438 5.15625C10.5312 5.34375 10.5312 5.6875 10.3438 5.875Z" fill="#000000"/>
</svg>
