<svg width="19" height="13" viewBox="0 0 19 13" fill="none" xmlns="http://www.w3.org/2000/svg">
<path d="M5.42578 1.9375C4.98828 1.9375 4.57812 2.21094 4.41406 2.64844L3.45703 5H6.875V4.5625V2.375V1.9375H5.42578ZM8.1875 5H13.3828L11.25 2.34766C11.0312 2.10156 10.7305 1.9375 10.4023 1.9375H8.1875V2.375V4.5625V5ZM15.0781 5.02734C16.8555 5.19141 18.25 6.69531 18.25 8.5V9.8125C18.25 10.3047 17.8398 10.6875 17.375 10.6875H16.4453C16.2539 11.9453 15.1602 12.875 13.875 12.875C12.5625 12.875 11.4688 11.9453 11.2773 10.6875H7.69531C7.50391 11.9453 6.41016 12.875 5.125 12.875C3.8125 12.875 2.71875 11.9453 2.52734 10.6875H1.625C1.13281 10.6875 0.75 10.3047 0.75 9.8125V6.75C0.75 5.95703 1.26953 5.27344 2.00781 5.08203L3.18359 2.15625C3.56641 1.22656 4.44141 0.625 5.42578 0.625H10.4023C11.1406 0.625 11.8242 0.980469 12.2891 1.52734L15.0781 5.02734ZM12.6172 9.8125C12.4531 10.2773 12.5352 10.7695 12.8633 11.125C13.1641 11.4805 13.6289 11.6719 14.0938 11.5625C14.5586 11.4805 14.9414 11.1523 15.1055 10.6875C15.2695 10.25 15.1602 9.75781 14.8594 9.40234C14.5586 9.04688 14.0938 8.85547 13.6289 8.96484C13.1641 9.04688 12.7812 9.375 12.6172 9.8125ZM16.3359 9.375H16.9375V8.5C16.9375 7.29688 15.9531 6.3125 14.75 6.3125H2.5C2.25391 6.3125 2.0625 6.53125 2.0625 6.75V9.375H2.63672C2.99219 8.36328 3.97656 7.625 5.125 7.625C6.24609 7.625 7.23047 8.36328 7.58594 9.375H11.3867C11.7422 8.36328 12.7266 7.625 13.875 7.625C14.9961 7.625 15.9805 8.36328 16.3359 9.375ZM5.125 8.9375C4.63281 8.9375 4.22266 9.21094 3.97656 9.59375C3.73047 10.0039 3.73047 10.5234 3.97656 10.9062C4.22266 11.3164 4.63281 11.5625 5.125 11.5625C5.58984 11.5625 6 11.3164 6.24609 10.9062C6.49219 10.5234 6.49219 10.0039 6.24609 9.59375C6 9.21094 5.58984 8.9375 5.125 8.9375Z" fill="#000000"/>
</svg>
