<svg width="24" height="24" viewBox="0 0 24 24" fill="none" xmlns="http://www.w3.org/2000/svg">
<path d="M9.8125 8.25V10H16.375C17.332 10 18.125 10.793 18.125 11.75V17C18.125 17.9844 17.332 18.75 16.375 18.75H7.625C6.64062 18.75 5.875 17.9844 5.875 17V11.75C5.875 10.793 6.64062 10 7.625 10H8.5V8.25C8.5 6.33594 10.0586 4.75 12 4.75C13.5586 4.75 14.8711 5.78906 15.3086 7.18359C15.418 7.53906 15.2266 7.89453 14.8984 8.00391C14.543 8.11328 14.1875 7.92188 14.0781 7.59375C13.7773 6.71875 12.957 6.0625 12 6.0625C10.7695 6.0625 9.8125 7.04688 9.8125 8.25ZM7.1875 11.75V17C7.1875 17.2461 7.37891 17.4375 7.625 17.4375H16.375C16.5938 17.4375 16.8125 17.2461 16.8125 17V11.75C16.8125 11.5312 16.5938 11.3125 16.375 11.3125H7.625C7.37891 11.3125 7.1875 11.5312 7.1875 11.75Z" fill="#000000"/>
</svg>
