<svg width="19" height="20" viewBox="0 0 19 20" fill="none" xmlns="http://www.w3.org/2000/svg">
<path d="M14.8828 16.2266L3.77344 5.11719C2.57812 6.48828 1.875 8.28125 1.875 10.25C1.875 14.6094 5.39062 18.125 9.75 18.125C11.7188 18.125 13.5117 17.4219 14.8828 16.2266ZM15.6914 15.418C16.8867 14.0469 17.625 12.2539 17.625 10.25C17.625 5.92578 14.0742 2.375 9.75 2.375C7.74609 2.375 5.95312 3.11328 4.58203 4.30859L15.6914 15.418ZM0.75 10.25C0.75 7.05078 2.4375 4.09766 5.25 2.48047C8.02734 0.863281 11.4375 0.863281 14.25 2.48047C17.0273 4.09766 18.75 7.05078 18.75 10.25C18.75 13.4844 17.0273 16.4375 14.25 18.0547C11.4375 19.6719 8.02734 19.6719 5.25 18.0547C2.4375 16.4375 0.75 13.4844 0.75 10.25Z" fill="#0E59A0"/>
</svg>
