<svg width="24" height="24" viewBox="0 0 24 24" fill="none" xmlns="http://www.w3.org/2000/svg">
<path d="M12 6.9375C10.1953 6.9375 8.74609 7.75781 7.625 8.79688C6.55859 9.78125 5.84766 10.9297 5.46484 11.75C5.84766 12.5703 6.55859 13.7461 7.625 14.7305C8.74609 15.7695 10.1953 16.5625 12 16.5625C13.7773 16.5625 15.2266 15.7695 16.3477 14.7305C17.4141 13.7461 18.1523 12.5703 18.5078 11.75C18.1523 10.9297 17.4141 9.78125 16.375 8.79688C15.2266 7.75781 13.7773 6.9375 12 6.9375ZM6.72266 7.83984C8.00781 6.63672 9.78516 5.625 12 5.625C14.1875 5.625 15.9648 6.63672 17.25 7.83984C18.5352 9.04297 19.3828 10.4375 19.793 11.4219C19.875 11.6406 19.875 11.8867 19.793 12.1055C19.3828 13.0625 18.5352 14.4844 17.25 15.6875C15.9648 16.8906 14.1875 17.875 12 17.875C9.78516 17.875 8.00781 16.8906 6.72266 15.6875C5.4375 14.4844 4.58984 13.0625 4.17969 12.1055C4.09766 11.8867 4.09766 11.6406 4.17969 11.4219C4.58984 10.4375 5.4375 9.01562 6.72266 7.83984ZM12 13.9375C13.2031 13.9375 14.1875 12.9805 14.1875 11.75C14.1875 10.5469 13.2031 9.5625 12 9.5625C11.9727 9.5625 11.9453 9.5625 11.9453 9.5625C11.9727 9.72656 12 9.86328 12 10C12 10.9844 11.207 11.75 10.25 11.75C10.0859 11.75 9.94922 11.75 9.8125 11.6953C9.8125 11.7227 9.8125 11.75 9.8125 11.75C9.8125 12.9805 10.7695 13.9375 12 13.9375ZM12 8.25C13.2305 8.25 14.3789 8.93359 15.0078 10C15.6367 11.0938 15.6367 12.4336 15.0078 13.5C14.3789 14.5938 13.2305 15.25 12 15.25C10.7422 15.25 9.59375 14.5938 8.96484 13.5C8.33594 12.4336 8.33594 11.0938 8.96484 10C9.59375 8.93359 10.7422 8.25 12 8.25Z" fill="#7888A9"/>
</svg>
