<svg width="25" height="24" viewBox="0 0 25 24" fill="none" xmlns="http://www.w3.org/2000/svg">
<path d="M11.1875 7.45703C9.62891 8.25 8.5625 9.89062 8.5625 11.75C8.5625 14.4297 10.6953 16.5625 13.3477 16.5625C13.7031 16.5625 14.0586 16.5352 14.4141 16.4531C12.0078 15.6328 10.2852 13.3359 10.2852 10.6562C10.2852 9.48047 10.6133 8.38672 11.1875 7.45703ZM12.8828 5.65234C12.9648 5.65234 13.0195 5.65234 13.0742 5.65234C13.1836 5.65234 13.2656 5.65234 13.3477 5.65234C13.4297 5.65234 13.5117 5.65234 13.5664 5.65234C13.6758 5.65234 13.7578 5.65234 13.8672 5.65234C14.0586 5.67969 14.2227 5.81641 14.25 6.00781C14.3047 6.19922 14.2227 6.39062 14.0586 6.47266C13.9492 6.52734 13.8672 6.58203 13.7852 6.63672C13.6758 6.71875 13.5664 6.80078 13.457 6.88281C13.4023 6.91016 13.375 6.9375 13.3477 6.96484C12.2812 7.83984 11.5977 9.17969 11.5977 10.6836C11.5977 13.3359 13.7578 15.4688 16.3828 15.4961C16.4102 15.4961 16.4102 15.4961 16.4102 15.4961C16.4375 15.4961 16.4648 15.4961 16.4922 15.4961C16.6562 15.4688 16.793 15.4688 16.9297 15.4688C17.0117 15.4414 17.1211 15.4414 17.2305 15.4141C17.4219 15.3867 17.6133 15.4688 17.6953 15.6328C17.7773 15.8242 17.75 16.0156 17.6133 16.1523C17.5312 16.2344 17.4766 16.2891 17.3945 16.3438C17.2578 16.4531 17.1484 16.5625 17.0117 16.6719C16.957 16.6992 16.9023 16.7539 16.8477 16.7812C15.8633 17.4648 14.6602 17.875 13.3477 17.875C9.98438 17.875 7.25 15.1406 7.25 11.75C7.25 8.52344 9.73828 5.89844 12.8828 5.65234Z" fill="#000000"/>
</svg>
