<svg width="162" height="80" fill="none" xmlns="http://www.w3.org/2000/svg"><g clip-path="url(#clip0_392_5163)"><path d="M40.69 3.368c-1.76-1.182-3.338-1.52-4.538-1.613-4.189-.322-16.807 0-16.807 0-4.35 0-7.876 3.548-7.876 7.926 0 2.14.845 4.083 2.216 5.508H1.602v7.31h3.843v12.896h32.04l68.778 42.992h31.184V65.919h3.418V59.04h-11.727a7.923 7.923 0 002.216-5.509c0-4.377-3.526-7.926-7.876-7.926h-12.596L40.691 3.368z" fill="#F3F7FA"/><path d="M139.051 80h-33.244l-.388-.243-68.39-42.749H3.846V24.112H0V13.579h10.69a9.566 9.566 0 01-.823-3.896c0-5.26 4.251-9.538 9.478-9.538C19.36.145 24.99 0 29.932 0c2.931 0 5.066.05 6.341.147 1.89.145 3.616.753 5.272 1.857l69.782 41.99h12.154c5.227 0 9.479 4.278 9.479 9.538a9.561 9.561 0 01-.824 3.896h10.335v10.101h-3.417v12.469l-.003.002zm-32.331-3.224h29.126V64.308h3.417v-3.654h-13.901l2.626-2.734a6.31 6.31 0 001.764-4.388c0-3.482-2.815-6.315-6.276-6.315h-13.039L39.801 4.71c-1.197-.804-2.43-1.243-3.772-1.347-1.195-.091-3.246-.14-6.097-.14-4.901 0-10.491.143-10.547.143A6.31 6.31 0 0013.07 9.68c0 1.646.627 3.203 1.764 4.387l2.626 2.734H3.203v4.084H7.05v12.896h30.895l.388.244 68.39 42.748-.002.002z" fill="#193060"/><path d="M77.304 6.792H74.95v6.117h-1.943V6.792h-2.354V5.324h6.651v1.468zM84.522 12.912h-1.943V9.569h-2.87v3.343h-1.944V5.326h1.943v2.777h2.87V5.326h1.944v7.586zM91.465 12.912h-5.451V5.326h5.451v1.469h-3.518v1.308h3.266V9.57h-3.266v1.874h3.518V12.912zM101.16 12.912h-5.451V5.326h5.451v1.469h-3.518v1.308h3.266V9.57h-3.266v1.874h3.518V12.912zM108.476 10.528c0 .748-.312 1.354-.942 1.82-.63.467-1.485.7-2.566.7a7.202 7.202 0 01-1.633-.164 8.526 8.526 0 01-1.305-.421v-1.818h.211c.401.322.852.57 1.351.743.497.172.975.258 1.434.258.118 0 .272-.01.466-.03.192-.02.351-.053.472-.101.148-.061.272-.138.367-.231.096-.092.144-.229.144-.409a.548.548 0 00-.209-.43c-.139-.123-.345-.214-.615-.277a16.652 16.652 0 00-.897-.19 6.808 6.808 0 01-.89-.226c-.635-.208-1.088-.487-1.368-.842-.277-.355-.419-.797-.419-1.322 0-.707.315-1.283.945-1.73.631-.446 1.437-.669 2.425-.669.496 0 .988.048 1.472.145a6.94 6.94 0 011.257.362v1.748h-.206a4.045 4.045 0 00-1.117-.614 3.831 3.831 0 00-1.351-.246c-.161 0-.322.01-.481.033a1.938 1.938 0 00-.464.124.89.89 0 00-.337.231.504.504 0 00-.142.355c0 .2.076.355.227.462.151.106.439.205.86.294l.799.167c.254.054.529.13.821.224.577.19 1.003.448 1.28.776.275.327.411.753.411 1.275v.003zM113.275 13.059c-.56 0-1.076-.084-1.55-.251a3.312 3.312 0 01-1.222-.743 3.331 3.331 0 01-.792-1.233c-.189-.492-.282-1.062-.282-1.707 0-.6.091-1.146.267-1.636.179-.489.439-.908.779-1.258a3.275 3.275 0 011.217-.778 4.463 4.463 0 011.588-.277c.317 0 .605.018.859.054.255.035.489.08.706.14.227.063.433.136.617.215.184.078.346.154.482.22v1.84h-.222a11.403 11.403 0 00-.355-.29 5.083 5.083 0 00-.489-.33c-.187-.109-.386-.2-.603-.274a2.131 2.131 0 00-.693-.111c-.272 0-.532.043-.779.13a1.88 1.88 0 00-.682.428 2.09 2.09 0 00-.484.768c-.124.317-.187.705-.187 1.16 0 .453.068.872.202 1.189.133.32.3.57.501.753.207.188.436.32.688.4.252.08.502.12.749.12s.471-.035.703-.106a2.72 2.72 0 00.64-.29c.166-.099.318-.203.459-.314.141-.112.259-.208.35-.29h.202v1.814c-.189.084-.368.165-.542.241-.172.074-.353.14-.54.193a6.187 6.187 0 01-.693.162 5.441 5.441 0 01-.892.056l-.002.005zM124.227 12.912h-2.006l-.526-1.535h-2.79l-.524 1.535h-1.959l2.785-7.586h2.238l2.785 7.586h-.003zm-3.001-2.924l-.928-2.717-.927 2.717h1.855zM130.702 12.912h-5.436V5.326h1.943v6.117h3.493V12.912zM138.986 12.912h-2.006l-.527-1.535h-2.79l-.524 1.535h-1.958l2.784-7.586h2.238l2.785 7.586h-.002zm-3.002-2.924l-.925-2.717-.927 2.717h1.855-.003zM145.616 6.792h-2.354v6.117h-1.943V6.792h-2.354V5.324h6.651v1.468zM153.865 9.12c0 1.21-.346 2.169-1.034 2.881-.688.713-1.638 1.068-2.855 1.068s-2.162-.355-2.85-1.068c-.688-.712-1.031-1.671-1.031-2.88 0-1.21.345-2.184 1.031-2.892.688-.708 1.638-1.063 2.85-1.063 1.212 0 2.16.355 2.85 1.063.691.708 1.039 1.671 1.039 2.891zm-2.578 1.92c.189-.23.33-.504.42-.816.091-.315.137-.685.137-1.109 0-.454-.051-.842-.157-1.161a2.206 2.206 0 00-.411-.774 1.513 1.513 0 00-.594-.444 1.879 1.879 0 00-1.396-.005c-.22.089-.419.233-.603.439-.169.19-.305.454-.411.789a3.896 3.896 0 00-.158 1.164c0 .441.053.837.156 1.154.103.317.237.575.406.776.168.2.365.347.592.444a1.852 1.852 0 001.429-.003c.227-.096.423-.246.592-.451l-.002-.003zM162 12.912h-2.374l-2.052-2.782h-.902v2.782h-1.933V5.326H158c.446 0 .83.025 1.15.076.32.05.62.16.902.33.285.17.509.39.678.66.166.268.249.608.249 1.016 0 .56-.128 1.017-.388 1.37-.257.352-.627.647-1.106.882L162 12.91v.002zm-3.032-5.263c0-.19-.04-.352-.118-.49a.797.797 0 00-.401-.321 1.513 1.513 0 00-.461-.1 8.693 8.693 0 00-.613-.017h-.703v2.042h.598c.31 0 .569-.016.778-.046.209-.03.386-.101.527-.208.136-.107.234-.22.297-.35.063-.127.094-.297.094-.512l.002.002zM95.33 23.123a4.685 4.685 0 01-1.56-.251 3.326 3.326 0 01-1.229-.748 3.375 3.375 0 01-.796-1.24c-.19-.495-.283-1.066-.283-1.715 0-.604.091-1.152.27-1.644.179-.492.441-.913.784-1.265a3.326 3.326 0 011.222-.784 4.45 4.45 0 011.595-.276 5.88 5.88 0 011.573.195c.227.066.434.137.617.218.187.081.348.155.487.223v1.85h-.225c-.095-.082-.214-.181-.357-.293a4.742 4.742 0 00-.492-.332c-.186-.109-.388-.2-.605-.274a2.088 2.088 0 00-.698-.111c-.274 0-.534.043-.783.129-.247.086-.477.23-.686.431a2.112 2.112 0 00-.486.771c-.124.32-.187.708-.187 1.164 0 .457.068.875.202 1.195.133.32.302.573.506.756.207.187.439.322.693.4.255.082.507.12.754.12s.474-.036.706-.107c.231-.071.446-.167.645-.292a4.2 4.2 0 00.46-.314c.145-.112.26-.208.354-.292h.204v1.824c-.19.084-.37.165-.544.24-.174.077-.356.14-.545.196a6.84 6.84 0 01-.698.165 5.496 5.496 0 01-.895.056l-.002.005zM106.473 19.166c0 1.215-.345 2.181-1.039 2.897-.693.715-1.648 1.072-2.867 1.072-1.22 0-2.173-.357-2.866-1.072-.693-.716-1.036-1.682-1.036-2.897 0-1.215.345-2.194 1.036-2.906.693-.71 1.648-1.068 2.866-1.068 1.217 0 2.167.355 2.862 1.068.696.712 1.044 1.681 1.044 2.906zm-2.591 1.93c.189-.23.33-.507.421-.822.091-.317.139-.687.139-1.113 0-.456-.053-.847-.157-1.167-.106-.32-.242-.58-.413-.778a1.573 1.573 0 00-.597-.447 1.9 1.9 0 00-1.404-.005 1.614 1.614 0 00-.602.442c-.169.19-.308.456-.414.791a3.831 3.831 0 00-.161 1.17c0 .443.053.841.156 1.158.104.32.24.581.411.781.169.2.368.35.595.447.227.096.466.144.716.144.249 0 .491-.048.718-.147.227-.096.426-.248.595-.454h-.003zM115.374 22.976h-1.943V17.87l-1.404 3.313h-1.348l-1.404-3.313v5.106h-1.842v-7.624h2.268l1.704 3.824 1.698-3.824h2.268v7.624h.003zM123.182 17.756c0 .343-.061.675-.179 1.002a2.205 2.205 0 01-.509.822 3.108 3.108 0 01-1.011.682c-.37.155-.834.23-1.386.23h-1.217v2.484h-1.953v-7.624h3.215c.482 0 .887.043 1.218.127.332.083.622.208.877.375.304.2.539.459.7.774.161.314.242.69.242 1.13l.003-.002zm-2.022.043a.94.94 0 00-.577-.88 1.774 1.774 0 00-.594-.134 20.202 20.202 0 00-.774-.013h-.335v2.278h.559c.333 0 .605-.02.822-.061.214-.04.395-.122.542-.246a.935.935 0 00.272-.39c.055-.153.083-.336.083-.554h.002zM130.465 22.976h-2.016l-.527-1.542h-2.805l-.527 1.542h-1.968l2.797-7.624h2.248l2.798 7.624zm-3.014-2.94l-.933-2.731-.932 2.731h1.865zM138.005 22.976h-1.882l-3.216-5.233v5.233h-1.792v-7.624h2.336l2.762 4.367v-4.367h1.792v7.624zM146.244 15.35l-2.793 4.673v2.95h-1.953v-2.856l-2.84-4.768h2.223l1.633 2.942 1.58-2.942h2.15z" fill="#0E1A34"/><path d="M26.432 11.304h19.01v5.105h-6.193v15.423h-6.514V16.41h-6.303v-5.105zM61.623 28.07v20.476h16.488V44.19h-9.439v-3.977h8.917V35.81h-8.972v-3.224h9.494v-4.514H61.623zM113.421 55.589v-4.73S94.837 45.7 94.837 59.994s18.584 9.136 18.584 9.136V64.4c-10.786 4.514-12.389-1.101-12.389-4.406 0-3.304 1.603-8.92 12.389-4.405z" fill="#1A3862"/></g><defs><clipPath id="clip0_392_5163"><path fill="#fff" d="M0 0h162v80H0z"/></clipPath></defs></svg>